<?xml version="1.0" encoding="utf-8"?>
<!-- Generator: Adobe Illustrator 25.2.3, SVG Export Plug-In . SVG Version: 6.00 Build 0)  -->
<svg version="1.1" id="Layer_1" xmlns="http://www.w3.org/2000/svg" xmlns:xlink="http://www.w3.org/1999/xlink" x="0px" y="0px"
	 viewBox="0 0 2000 2000" style="enable-background:new 0 0 2000 2000;" xml:space="preserve">
<style type="text/css">
	.st0{fill:#272651;stroke:#272651;stroke-miterlimit:10;}
	.st1{fill:#272651;}
	.st2{font-family:'MyriadPro-Regular';}
	.st3{font-size:12px;}
	.st4{fill:none;}
	.st5{fill:#FFFFFF;}
</style>
<circle class="st0" cx="1000" cy="1000" r="1000"/>
<g>
	<g>
		<path class="st1" d="M356.77,774.17c26.7,1.42,53.6,2.69,80.17-1.03c12.88-1.8,25.62-4.85,37.73-9.66
			c11.87-4.72,22.99-11.05,33.31-18.54c20.42-14.81,38.01-33.47,53.81-53.03c15.79-19.56,29.72-40.6,41.51-62.8
			c11.74-22.13,21.4-45.39,28.72-69.35c0.91-2.97,1.78-5.95,2.61-8.94c0.87-3.1-3.95-4.43-4.82-1.33
			c-6.68,23.87-15.64,47.08-26.76,69.23c-11.08,22.06-24.24,43.07-39.27,62.66c-15.03,19.58-31.92,38.3-51.2,53.81
			c-9.59,7.72-19.97,14.54-31.07,19.89c-11.63,5.6-24.07,9.36-36.73,11.76c-25.71,4.86-52.13,4.14-78.14,2.87
			c-3.29-0.16-6.58-0.33-9.86-0.51C353.56,769,353.57,774,356.77,774.17L356.77,774.17z"/>
	</g>
</g>
<text transform="matrix(1 0 0 1 497.1904 917.5713)" class="st2 st3">Lorem ipsum</text>
<rect x="640.05" y="653.29" class="st4" width="990.48" height="795.24"/>
<ellipse class="st5" cx="538.58" cy="1035.43" rx="311.15" ry="596.43"/>
<ellipse class="st5" cx="999.57" cy="920.72" rx="311.15" ry="517.43"/>
<ellipse class="st5" cx="1446.44" cy="1000" rx="311.15" ry="596.43"/>
</svg>
