<?xml version="1.0" encoding="utf-8"?>
<!-- Generator: Adobe Illustrator 25.2.3, SVG Export Plug-In . SVG Version: 6.00 Build 0)  -->
<svg version="1.1" id="Layer_1" xmlns="http://www.w3.org/2000/svg" xmlns:xlink="http://www.w3.org/1999/xlink" x="0px" y="0px"
	 viewBox="0 0 2000 2000" style="enable-background:new 0 0 2000 2000;" xml:space="preserve">
<style type="text/css">
	.st0{fill:#272651;stroke:#272651;stroke-miterlimit:10;}
	.st1{fill:#272651;}
	.st2{fill:#FFFFFF;}
</style>
<circle class="st0" cx="1000" cy="1000" r="1000"/>
<g>
	<g>
		<path class="st1" d="M356.77,774.17c26.7,1.42,53.6,2.69,80.17-1.03c12.88-1.8,25.62-4.85,37.73-9.66
			c11.87-4.72,22.99-11.05,33.31-18.54c20.42-14.81,38.01-33.47,53.81-53.03c15.79-19.56,29.72-40.6,41.51-62.8
			c11.74-22.13,21.4-45.39,28.72-69.35c0.91-2.97,1.78-5.95,2.61-8.94c0.87-3.1-3.95-4.43-4.82-1.33
			c-6.68,23.87-15.64,47.08-26.76,69.23c-11.08,22.06-24.24,43.07-39.27,62.66c-15.03,19.58-31.92,38.3-51.2,53.81
			c-9.59,7.72-19.97,14.54-31.07,19.89c-11.63,5.6-24.07,9.36-36.73,11.76c-25.71,4.86-52.13,4.14-78.14,2.87
			c-3.29-0.16-6.58-0.33-9.86-0.51C353.56,769,353.57,774,356.77,774.17L356.77,774.17z"/>
	</g>
</g>
<g>
	<g>
		<path class="st2" d="M345.47,1114.35c-28.58,85.68-33.44,178.29-16.26,266.81c7.59,39.13,20.22,80.46,49.38,109.18
			c36.56,36.01,88.89,38.66,136.73,30.26c82.85-14.55,151.32-73.76,196.5-142.1c23.28-35.22,40.71-74.04,55.7-113.41
			c15.01-39.43,27.24-79.98,37.05-121.01c20.83-87.14,30.97-177.39,29.38-266.99c-0.19-10.78-0.57-21.55-1.09-32.32
			c-1-20.61-17.45-40.49-39.5-39.5c-21.39,0.96-39.51,17.36-39.5,39.5c0.06,104.47,2.59,213.73,51.78,308.56
			c12.93,24.92,29.73,52.75,55.48,66.1c17.29,8.96,37.53,12.49,56.17,5.45c19.81-7.49,32-21.27,44.38-37.65
			c31.6-41.81,53.81-90.37,69.78-140.1c18.3-56.99,27.56-116.41,34.29-175.74c-26.33,0-52.67,0-79,0
			c-2.19,88.88,4.37,177.65,18.35,265.43c6.8,42.73,15.59,85.15,26.34,127.07c10.01,39.05,21.28,77.57,37.31,114.61
			c13.68,31.61,33.22,63.15,60.42,84.85c18.25,14.56,37.49,25.81,60.17,32.29c21.11,6.03,44.1,7.92,65.94,5.82
			c86.36-8.31,158.11-59.98,218.84-118.57c57.72-55.69,114.19-118,148.32-191.37c36.82-79.15,49.43-166.2,49.95-252.93
			c0.53-89.23-11.19-179.15-34.47-265.29c-20.27-75.02-49.78-148.67-100.19-208.71c-24.95-29.72-56.35-55.01-91.11-72.34
			c-40.04-19.96-82.25-30.66-126.43-36.2c-22.59-2.83-45.14-4.49-67.66,0.04c-22.86,4.6-43.53,19.35-58.75,36.54
			c-28.71,32.43-49.62,72.39-59.94,114.46c-5.08,20.71-7.82,42.29-8.12,63.61c24.54-6.65,49.07-13.29,73.61-19.94
			c-50.81-84.21-127.39-155.4-217.18-196.32c-86.92-39.62-200.83-52.67-276.01,18.26c-42.78,40.36-59.01,99.47-68.71,155.52
			c25.86,3.5,51.73,7,77.59,10.5c2.54-39.12-21.6-73.91-53.34-94.35c-31.12-20.04-70.09-24.8-105.51-15.1
			c-36.85,10.09-68.96,33.93-94.89,61.36c-24.43,25.84-45.72,55.34-64.31,85.61c-72.89,118.67-103.05,257.97-122.99,394.11
			c-6.25,42.67-12.31,85.72-11.86,128.94c0.48,46.57,9,91.66,28.58,134c3.92,8.49,14.94,15.77,23.61,18.15
			c9.46,2.6,22.05,1.43,30.44-3.98c8.43-5.44,15.86-13.53,18.15-23.61c2.49-10.91,0.7-20.31-3.98-30.44
			c-1.3-2.8-2.54-5.62-3.75-8.46c1.33,3.15,2.65,6.29,3.98,9.44c-8.16-19.85-13.39-40.59-16.38-61.83c0.47,3.5,0.94,7,1.41,10.5
			c-6.19-46.43-2.01-93.36,4.19-139.56c-0.47,3.5-0.94,7-1.41,10.5c11.58-85.32,26.71-170.81,53.04-252.94
			c7.33-22.87,15.59-45.43,24.88-67.58c-1.33,3.15-2.65,6.29-3.98,9.44c17.6-41.61,38.99-81.64,65.24-118.46
			c3.16-4.43,6.42-8.79,9.68-13.15c2.49-3.25,1.76-2.32-2.18,2.81c0.9-1.15,1.8-2.29,2.7-3.43c1.79-2.26,3.61-4.51,5.44-6.73
			c6.96-8.45,14.27-16.61,22.05-24.3c3.77-3.73,7.66-7.35,11.67-10.83c2.13-1.85,4.32-3.62,6.49-5.41c3.2-2.52,2.19-1.75-3.01,2.31
			c1.12-0.84,2.25-1.66,3.38-2.48c9.01-6.44,18.59-11.94,28.75-16.36c-3.15,1.33-6.29,2.65-9.44,3.98
			c9.58-3.98,19.41-6.81,29.67-8.34c-3.5,0.47-7,0.94-10.5,1.41c7.72-1,15.35-0.99,23.07-0.01c-3.5-0.47-7-0.94-10.5-1.41
			c8.24,1.22,16.14,3.44,23.83,6.64c-3.15-1.33-6.29-2.65-9.44-3.98c4.58,2.01,9.03,4.28,13.26,6.95c1.62,1.02,8.34,5.99,2.45,1.39
			c-6.04-4.71,1.25,1.18,2.61,2.46c1.66,1.55,3.26,3.17,4.78,4.86c0.18,0.2,2.24,2.53,2.21,2.56c-0.21,0.19-6.02-8.47-3.11-4
			c2.75,4.22,5.26,8.38,7.24,13.02c-1.33-3.15-2.65-6.29-3.98-9.44c1.84,4.66,3.13,9.39,3.86,14.34c-0.47-3.5-0.94-7-1.41-10.5
			c0.47,3.99,0.57,7.89,0.31,11.89c-1.27,19.58,16.01,36.34,34.25,38.79c17.81,2.39,39.98-8.89,43.34-28.29
			c4.92-28.47,10.97-56.89,22.12-83.65c-1.33,3.15-2.65,6.29-3.98,9.44c3.81-8.91,8.12-17.58,13.24-25.82
			c1.45-2.34,2.97-4.64,4.54-6.9c0.79-1.13,1.59-2.25,2.41-3.36c-1.22,1.57-2.45,3.14-3.67,4.7c2.88-4.23,6.72-8.08,10.3-11.71
			c3.09-3.13,6.33-6.11,9.71-8.93c6.67-5.55-7.24,5.11-1.46,1.08c1.75-1.22,3.47-2.47,5.25-3.65c7.32-4.84,15.09-8.87,23.16-12.3
			c-3.15,1.33-6.29,2.65-9.44,3.98c13.58-5.57,27.75-9.14,42.28-11.1c-3.5,0.47-7,0.94-10.5,1.41c19.5-2.45,39.11-2.02,58.58,0.48
			c-3.5-0.47-7-0.94-10.5-1.41c26.94,3.66,53.17,11.16,78.22,21.69c-3.15-1.33-6.29-2.65-9.44-3.98
			c33.19,14.18,64.24,33.06,93.09,54.67c5.3,3.97-7.68-6.05-0.49-0.36c1.65,1.31,3.3,2.63,4.94,3.96c3.55,2.88,7.05,5.82,10.51,8.8
			c6.92,5.97,13.67,12.14,20.23,18.51c13.37,12.97,25.97,26.74,37.7,41.21c1.55,1.91,3.07,3.84,4.6,5.77
			c0.81,1.03,3.25,4.18-0.5-0.66c-3.96-5.11-0.73-0.92,0.11,0.2c3.17,4.21,6.26,8.48,9.29,12.8c6.04,8.64,11.76,17.51,17.21,26.54
			c8.71,14.43,27.93,23.55,44.61,18.15c16.77-5.43,28.75-20.12,29-38.09c0.14-9.7,0.84-19.34,2.11-28.96c-0.47,3.5-0.94,7-1.41,10.5
			c2.93-20.73,8.49-40.86,16.56-60.18c-1.33,3.15-2.65,6.29-3.98,9.44c7.2-16.8,16.15-32.78,27-47.5c5.14-6.98-3.1,3.74-0.78,0.95
			c1.35-1.62,2.65-3.27,4.03-4.86c2.75-3.2,5.63-6.29,8.69-9.2c1.52-1.45,3.14-2.79,4.69-4.2c2.97-2.69-8.4,5.91-1.34,1.15
			c3.76-2.53,7.7-4.61,11.87-6.37c-3.15,1.33-6.29,2.65-9.44,3.98c5.01-1.91,10.03-3.14,15.32-3.94c-3.5,0.47-7,0.94-10.5,1.41
			c18.13-2.21,36.88,0.09,54.9,2.42c-3.5-0.47-7-0.94-10.5-1.41c30.11,4.05,59.68,11.32,87.78,22.98c-3.15-1.33-6.29-2.65-9.44-3.98
			c19.35,8.21,37.29,18.51,54.36,30.75c3.24,2.44,2.21,1.63-3.08-2.42c1.08,0.85,2.15,1.7,3.22,2.56c1.6,1.29,3.18,2.6,4.74,3.93
			c3.64,3.1,7.19,6.3,10.66,9.59c7.17,6.81,13.95,14.02,20.36,21.54c1.55,1.82,3.08,3.66,4.58,5.51c0.88,1.08,6.58,8.36,1.99,2.44
			c-4.59-5.92,1.02,1.45,1.84,2.57c1.41,1.94,2.81,3.9,4.18,5.86c5.51,7.91,10.69,16.06,15.56,24.38
			c10.02,17.12,18.7,34.98,26.45,53.24c-1.33-3.15-2.65-6.29-3.98-9.44c28.29,67.35,45.19,139.9,55.04,212.11
			c-0.47-3.5-0.94-7-1.41-10.5c10.12,75.61,12.36,153.18,2.41,228.93c0.47-3.5,0.94-7,1.41-10.5
			c-5.83,43.1-16.14,85.53-33.07,125.68c1.33-3.15,2.65-6.29,3.98-9.44c-10.52,24.53-23.47,47.86-38.39,69.99
			c-3.43,5.09-6.96,10.12-10.57,15.08c-2.03,2.8-4.09,5.57-6.18,8.33c-0.92,1.22-1.83,2.48-2.8,3.67c1.99-2.46,5-6.43,1.21-1.63
			c-8.36,10.58-17.06,20.89-26,30.98c-17.19,19.4-35.22,38.08-53.75,56.21c-9.03,8.83-18.22,17.5-27.67,25.88
			c-4.44,3.94-8.94,7.83-13.5,11.63c-2.56,2.14-5.14,4.25-7.74,6.34c-1.15,0.93-2.31,1.85-3.48,2.77c-4.92,3.88-0.22,0.53,1.86-1.42
			c-9.89,9.28-23.05,16.68-34.62,23.66c-12.55,7.57-25.58,14.26-39.07,19.97c3.15-1.33,6.29-2.65,9.44-3.98
			c-18.22,7.54-37.06,13.12-56.6,15.86c3.5-0.47,7-0.94,10.5-1.41c-14.47,1.85-28.96,2.11-43.44,0.29c3.5,0.47,7,0.94,10.5,1.41
			c-11.32-1.61-22.23-4.46-32.82-8.81c3.15,1.33,6.29,2.65,9.44,3.98c-5.17-2.25-10.2-4.75-15.03-7.66
			c-2.14-1.28-4.24-2.63-6.3-4.04c-1.02-0.7-2.01-1.46-3.04-2.15c-3.83-2.57,7.1,5.76,3.56,2.79c-8.13-6.82-15.63-14.08-22.33-22.33
			c-5.09-6.27,5.21,7.09,0.44,0.53c-1.49-2.04-2.93-4.12-4.34-6.22c-3.01-4.51-5.85-9.13-8.52-13.85
			c-5.43-9.59-10.17-19.56-14.49-29.7c1.33,3.15,2.65,6.29,3.98,9.44c-16.42-39.15-27.12-80.86-37.04-122.05
			c-11.22-46.57-19.99-93.7-26.41-141.17c0.47,3.5,0.94,7,1.41,10.5c-9.78-73.32-13.82-147.31-11.99-221.26
			c0.51-20.67-18.53-40.44-39.5-39.5c-10.22,0.46-20.81,3.81-27.93,11.57c-7.53,8.2-10.32,16.93-11.57,27.93
			c-1.08,9.54-2.25,19.07-3.52,28.58c0.47-3.5,0.94-7,1.41-10.5c-8.33,61.43-21.29,122.62-45.35,179.98
			c1.33-3.15,2.65-6.29,3.98-9.44c-8.27,19.48-17.76,38.43-28.79,56.5c-5.34,8.74-11.02,17.27-17.06,25.55
			c-1.85,2.53-8.86,9.78-0.37,0.69c-1.4,1.5-2.59,3.24-3.96,4.78c-1.67,1.88-4.51,3.76-5.82,5.83c5.41-3.97,6.45-4.83,3.12-2.56
			c-1.14,0.71-2.32,1.34-3.54,1.9c3.15-1.33,6.29-2.65,9.44-3.98c-2.5,1.03-4.93,1.73-7.6,2.19c3.5-0.47,7-0.94,10.5-1.41
			c-2.54,0.25-4.93,0.22-7.46-0.06c3.5,0.47,7,0.94,10.5,1.41c-2.49-0.45-4.82-1.1-7.2-1.98c3.15,1.33,6.29,2.65,9.44,3.98
			c-1.78-0.77-3.5-1.58-5.18-2.55c-1.42-0.82-6.31-4.47-0.94-0.25c5.45,4.29,0.46,0.28-0.71-0.8c-1.53-1.4-3-2.88-4.41-4.39
			c-1.18-1.27-2.27-2.63-3.43-3.93c-3.16-3.56,5.49,7.68,1.78,2.27c-2.21-3.23-4.35-6.48-6.42-9.8
			c-8.23-13.25-15.31-27.15-21.46-41.48c1.33,3.15,2.65,6.29,3.98,9.44c-15.03-35.62-23.77-73.36-28.93-111.59
			c0.47,3.5,0.94,7,1.41,10.5c-6.77-51.53-7.27-103.58-7.31-155.47c-26.33,0-52.67,0-79,0c3.01,62.15,0.36,124.45-7.81,186.14
			c0.47-3.5,0.94-7,1.41-10.5c-11.38,84.32-32.45,168.25-65.39,246.82c1.33-3.15,2.65-6.29,3.98-9.44
			c-8.52,20.12-17.97,39.86-28.88,58.81c-5.61,9.75-11.59,19.29-17.99,28.55c-2.98,4.32-6.09,8.54-9.21,12.75
			c-2.5,3.27-1.81,2.39,2.06-2.65c-0.93,1.18-1.86,2.35-2.81,3.52c-1.65,2.04-3.33,4.07-5.03,6.07
			c-6.75,7.97-13.88,15.61-21.42,22.83c-3.58,3.43-7.25,6.77-11,10.01c-2.15,1.85-4.32,3.67-6.52,5.46
			c-1.1,0.89-2.21,1.78-3.32,2.66c4.92-3.77,6.19-4.75,3.79-2.93c-16.81,12.42-34.55,23.13-53.77,31.43
			c3.15-1.33,6.29-2.65,9.44-3.98c-17.44,7.34-35.58,12.57-54.32,15.25c3.5-0.47,7-0.94,10.5-1.41
			c-14.53,1.92-29.21,2.45-43.79,0.69c3.5,0.47,7,0.94,10.5,1.41c-8.4-1.19-16.47-3.19-24.33-6.42c3.15,1.33,6.29,2.65,9.44,3.98
			c-2.98-1.33-5.9-2.77-8.7-4.45c-1.64-0.98-8.79-6.17-3.1-1.77c5.77,4.46-1.73-1.72-3.15-3.12c-2.04-2-3.83-4.19-5.77-6.28
			c-3.12-3.35,5.25,7.29,2.65,3.5c-0.72-1.05-1.5-2.07-2.21-3.12c-1.63-2.39-3.16-4.85-4.61-7.36c-2.93-5.1-5.46-10.41-7.77-15.82
			c1.33,3.15,2.65,6.29,3.98,9.44c-10.59-25.67-15.86-53.52-19.68-80.92c0.47,3.5,0.94,7,1.41,10.5
			c-5.79-43.22-5.82-86.96-0.15-130.19c-0.47,3.5-0.94,7-1.41,10.5c4.14-30.39,11.04-60.28,20.75-89.37
			c6.54-19.62-7.55-44.03-27.59-48.59C372.25,1081.79,352.47,1093.34,345.47,1114.35L345.47,1114.35z"/>
	</g>
</g>
</svg>
